# xmcd
#
# Track frame offsets:
#	150
#	1942
#	9362
#	21260
#	29782
#	38870
#	47407
#	60670
#	70755
#	81397
#	84440
#	94842
#	96125
#	109797
#	112280
#	123647
#	134310
#	138425
#	142630
#	151715
#	162932
#	169200
#
# Disc length: 2432 seconds
#
# Revision: 0
# Processed by: cddbd v1.4PL0 Copyright (c) Steve Scherf et al.
# Submitted via: dBpowerAMP V4.0
#
DISCID=1f097e16
DTITLE=Various Artist - Live Again!WCYBBristolFarm&Fun
DYEAR=2003
DGENRE=General Country
TTITLE0=Intro/Stanley Brothers
TTITLE1=Old Joe Clark/Stanley Brothers
TTITLE2=They're At Rest Together/Stanley Brothers
TTITLE3=White House Blues/Stanley Brothers
TTITLE4=Standing In The Need Of Prayer/Stanley Brothers
TTITLE5=Riding The Humbacked Mule/Stanley Brothers
TTITLE6=The Jealous Lover/Stanley Brothers
TTITLE7=Goodbye Old Pal/Stanley Brothers
TTITLE8=Just One Way To The Pearly Gate/Stanley Brothers
TTITLE9=Intro/Curly King and Tennessee Hilltoppers
TTITLE10=Don't Forget Me/Curly King and Tennessee Hilltoppers
TTITLE11=Home Furniture Ad/Curly King and Tennessee Hilltoppers
TTITLE12=I Love Her Now Mother's Old/Curly King and Tennessee Hilltoppers
TTITLE13=Outro/Curly King and Tennessee Hilltoppers
TTITLE14=From The Manger To The Cross/Mac Wiseman and The Country Boys
TTITLE15=A Broke Heart To Mend/Mac Wiseman and The Country Boys
TTITLE16=Grey Eagle/Mac Wiseman and The Country Boys
TTITLE17=Intro/Stanley Brothers
TTITLE18=Let Me Be Your Friend/Stanley Brothers
TTITLE19=Short Life Of Trouble/Stanley Brothers
TTITLE20=Blackberry Blossom/Stanley Brothers
TTITLE21=Rose Of Old Kentucky/Stanley Brothers
EXTD=Submitted by William Hale
EXTT0=
EXTT1=
EXTT2=
EXTT3=
EXTT4=
EXTT5=
EXTT6=
EXTT7=
EXTT8=
EXTT9=
EXTT10=
EXTT11=
EXTT12=
EXTT13=
EXTT14=
EXTT15=
EXTT16=
EXTT17=
EXTT18=
EXTT19=
EXTT20=
EXTT21=
PLAYORDER=
